<?xml version="1.0" encoding="UTF-8"?>
<svg width="28px" height="28px" viewBox="0 0 28 28" version="1.1" xmlns="http://www.w3.org/2000/svg" xmlns:xlink="http://www.w3.org/1999/xlink">
    <!-- Generator: Sketch 50.2 (55047) - http://www.bohemiancoding.com/sketch -->
    <title>icon-mail</title>
    <desc>Created with Sketch.</desc>
    <defs></defs>
    <g id="icon-mail" stroke="none" stroke-width="1" fill="none" fill-rule="evenodd">
        <path d="M3.84615385,5 C3.59792308,5 3.36004923,5.04652308 3.14423077,5.13461538 L13.3653846,14.8750277 C13.8068646,15.2956431 14.1729354,15.2861969 14.6153846,14.8654892 L24.8557692,5.13470769 C24.6399508,5.04652308 24.4020769,5 24.1538462,5 L3.84615385,5 Z M2.01923077,6.60578462 C2.00924615,6.68381538 2,6.76529231 2,6.84615385 L2,20.3846277 C2,21.4073662 2.82340308,22.2307815 3.84615385,22.2307815 L24.1538462,22.2307815 C25.1765969,22.2307815 26,21.4073662 26,20.3846277 L26,6.84615385 C26,6.76529231 25.9907692,6.68381538 25.9807692,6.60578462 L15.8942308,16.2115508 C14.8391723,17.2149969 13.1414585,17.2165046 12.0865385,16.2115508 L2.01923077,6.60578462 Z" id="Shape" fill="#ffffff" fill-rule="nonzero"></path>
    </g>
</svg>
