<?xml version="1.0" encoding="UTF-8"?>
<svg width="28px" height="28px" viewBox="0 0 28 28" version="1.1" xmlns="http://www.w3.org/2000/svg" xmlns:xlink="http://www.w3.org/1999/xlink">
    <!-- Generator: Sketch 50.2 (55047) - http://www.bohemiancoding.com/sketch -->
    <title>icon-insta</title>
    <desc>Created with Sketch.</desc>
    <defs></defs>
    <g id="icon-insta" stroke="none" stroke-width="1" fill="none" fill-rule="evenodd">
        <path d="M23.781,18.855 C23.729,20.028 23.533,20.665 23.368,21.087 C23.15,21.648 22.89,22.048 22.469,22.468 C22.049,22.89 21.648,23.151 21.088,23.368 C20.664,23.533 20.027,23.729 18.855,23.783 C17.589,23.839 17.209,23.851 14,23.851 C10.79,23.851 10.41,23.839 9.143,23.783 C7.971,23.729 7.335,23.533 6.912,23.368 C6.351,23.151 5.95,22.89 5.53,22.468 C5.11,22.048 4.849,21.648 4.631,21.087 C4.466,20.665 4.271,20.028 4.217,18.855 C4.159,17.587 4.147,17.209 4.147,14 C4.147,10.791 4.159,10.41 4.217,9.143 C4.271,7.971 4.466,7.335 4.631,6.912 C4.849,6.35 5.11,5.95 5.53,5.53 C5.95,5.109 6.351,4.849 6.912,4.63 C7.335,4.466 7.971,4.271 9.143,4.217 C10.41,4.159 10.791,4.147 14,4.147 C17.209,4.147 17.588,4.159 18.855,4.217 C20.027,4.271 20.664,4.466 21.088,4.63 C21.648,4.849 22.049,5.109 22.469,5.53 C22.89,5.95 23.15,6.35 23.368,6.912 C23.533,7.335 23.729,7.971 23.781,9.143 C23.84,10.41 23.851,10.791 23.851,14 C23.851,17.209 23.84,17.587 23.781,18.855 M25.927,9.052 C25.87,7.774 25.666,6.902 25.369,6.139 C25.063,5.35 24.652,4.681 23.985,4.014 C23.318,3.347 22.649,2.936 21.86,2.63 C21.096,2.333 20.223,2.13 18.947,2.072 C17.668,2.014 17.259,2 14,2 C10.74,2 10.332,2.014 9.052,2.072 C7.775,2.13 6.903,2.333 6.139,2.63 C5.35,2.936 4.681,3.347 4.014,4.014 C3.346,4.681 2.936,5.35 2.63,6.139 C2.333,6.902 2.13,7.774 2.072,9.052 C2.013,10.332 2,10.74 2,14 C2,17.258 2.013,17.667 2.072,18.948 C2.13,20.224 2.333,21.096 2.63,21.86 C2.936,22.648 3.346,23.318 4.014,23.985 C4.681,24.652 5.35,25.063 6.139,25.37 C6.903,25.667 7.775,25.87 9.052,25.927 C10.332,25.986 10.74,26 14,26 C17.259,26 17.668,25.986 18.947,25.927 C20.223,25.87 21.096,25.667 21.86,25.37 C22.649,25.063 23.318,24.652 23.985,23.985 C24.652,23.318 25.063,22.648 25.369,21.86 C25.666,21.096 25.87,20.224 25.927,18.948 C25.986,17.667 26,17.258 26,14 C26,10.74 25.986,10.332 25.927,9.052 M21.832,7.605 C21.832,8.398 21.188,9.042 20.394,9.042 C19.6,9.042 18.957,8.398 18.957,7.605 C18.957,6.811 19.6,6.168 20.394,6.168 C21.188,6.168 21.832,6.811 21.832,7.605 M14,18.01 C11.784,18.01 9.989,16.214 9.989,14 C9.989,11.784 11.784,9.989 14,9.989 C16.215,9.989 18.011,11.784 18.011,14 C18.011,16.214 16.215,18.01 14,18.01 M14,7.841 C10.598,7.841 7.841,10.598 7.841,14 C7.841,17.401 10.598,20.157 14,20.157 C17.4,20.157 20.158,17.401 20.158,14 C20.158,10.598 17.4,7.841 14,7.841" id="Fill-1" fill="#000000"></path>
    </g>
</svg>